<svg xml:space="preserve" style="enable-background:new 0 0 538 72;" viewBox="0 0 538 72" y="0px" x="0px" xmlns:xlink="http://www.w3.org/1999/xlink" xmlns="http://www.w3.org/2000/svg" id="Layer_1" version="1.1">
<style type="text/css">
	.st0{fill-rule:evenodd;clip-rule:evenodd;fill:#000B50;}
	.st1{fill:#FFC729;}
</style>
<g>
	<g>
		<path d="M488.9,21.9c-2.8,0-5.5,0.6-8,1.9c-2.5,1.3-4.6,3.2-6.2,5.6v-6.3h-10.9v42.5h10.9V44.9c0-8,3.7-12.8,9.8-12.8
			c5.4,0,9.3,3.7,9.3,9.9v23.6h10.9v-26C504.8,28.5,498.3,21.9,488.9,21.9L488.9,21.9z" class="st0"></path>
		<path d="M380.7,65.6h-11.5V42c0-5.8-3.7-9.9-8.9-9.9c-6.5,0-10.4,4.8-10.4,12.8v20.8h-11.6V23.2h11.6v6.3
			c1.7-2.4,3.9-4.3,6.5-5.6s5.5-2,8.5-1.9c6.7,0,11.7,3.3,14.2,9c1.8-2.8,4.2-5,7.1-6.6s6.2-2.4,9.6-2.3c9.6,0,15.9,7,15.9,17.8v26
			H400V42c0-5.8-3.7-9.9-8.9-9.9c-6.5,0-10.4,4.8-10.4,12.8L380.7,65.6z" class="st0"></path>
		<path d="M143.5,37l-2.5-1l2.4-1.2c0.3-0.1,6.6-3.5,6.6-11.7c0-6.9-6.1-13.9-17.9-13.9h-28.4v56.5h28.4
			c18.6,0,19.6-12.8,19.6-15.4C151.8,40.5,143.6,37.1,143.5,37z M115.6,18.5h14c3.8,0,8,2.2,8,7.2c0,4.8-4,7.3-8,7.3h-14V18.5z
			 M131.4,56.4h-15.9V41.8h15.9c5.2,0,7.9,3.7,7.9,7.3C139.3,53.3,136,56.4,131.4,56.4L131.4,56.4z" class="st0"></path>
		<path d="M199.8,44.5c-0.3-13.3-9.4-22.6-22.3-22.6c-13.1,0-22.9,9.7-22.9,22.6c-0.1,5.9,2.2,11.6,6.2,15.9
			c4.2,4.3,10.2,6.7,16.7,6.7c6.5,0,12.5-2.4,16.7-6.7c2.2-2.3,3.9-5.1,5-8.2h-10.5c-2.2,3.8-6.2,6.1-11.1,6.1
			c-5.6,0-10.1-3.9-11.4-10l-0.3-1.5h33.9L199.8,44.5z M166.5,39.1c0.7-2.4,2.1-4.5,4.1-5.9c2-1.5,4.4-2.3,6.9-2.3
			c5.3,0,9.2,3.1,10.6,8.2L166.5,39.1z" class="st0"></path>
		<path d="M304.3,44.5c-0.2-13.3-9.1-22.6-21.6-22.6c-12.7,0-22.2,9.7-22.2,22.6c-0.1,5.9,2.1,11.6,6,15.9
			c4,4.3,9.8,6.7,16.2,6.7c6.3,0,12.1-2.4,16.1-6.7c2.2-2.3,3.8-5.1,4.8-8.2h-10.2c-2.1,3.8-6,6.1-10.7,6.1c-5.4,0-9.8-3.9-11-10
			l-0.3-1.5h32.9L304.3,44.5z M272,39.1c0.7-2.4,2.1-4.5,4-5.9c1.9-1.5,4.3-2.3,6.7-2.3c5.1,0,8.9,3.1,10.2,8.2L272,39.1z" class="st0"></path>
		<path d="M458.2,44.5c-0.2-13.3-9.1-22.6-21.6-22.6c-12.7,0-22.2,9.7-22.2,22.6c-0.1,5.9,2.1,11.6,6,15.9
			c4,4.3,9.8,6.7,16.2,6.7s12.1-2.4,16.2-6.7c2.2-2.3,3.8-5.1,4.8-8.2h-10.2c-2.1,3.8-6,6.1-10.7,6.1c-5.4,0-9.8-3.9-11-10l-0.3-1.5
			h32.9L458.2,44.5z M425.9,39.1c0.7-2.4,2.1-4.5,4-5.9c1.9-1.5,4.3-2.3,6.7-2.3c5.1,0,8.9,3.1,10.2,8.2L425.9,39.1z" class="st0"></path>
		<path d="M335.4,21.9c-7.2-0.4-13.3,2.7-16.4,8.6v-7.3h-11.9v42.5H319V47.2c0-11.3,8.1-17,16.4-13.8V21.9z" class="st0"></path>
		<path d="M259.2,56.4c-1.7,0.7-3.5,1.1-5.3,1.1c-5,0-7.8-3.1-7.8-8.6v-17h13.6v-8.7h-13.6V4.9l-11.4,4.1v14.2h-19.3
			V4.9l-11.4,4.1v41.4c0,10.9,5.6,16.6,16.3,16.6c4.2,0,7.7-0.7,10.9-2.1l-2.8-8.6c-1.7,0.7-3.5,1.1-5.3,1.1c-5,0-7.8-3.1-7.8-8.6
			v-17h19.3v18.5c0,10.9,5.6,16.6,16.3,16.6c4.2,0,7.7-0.7,10.9-2.1L259.2,56.4z" class="st0"></path>
		<path d="M534.5,56.4c-1.6,0.7-3.4,1.1-5.2,1.1c-5,0-7.7-3.1-7.7-8.6v-17H535v-8.7h-13.4V4.9l-11.2,4.1v41.4
			c0,10.9,5.6,16.6,16.1,16.6c4.1,0,7.6-0.7,10.7-2.1L534.5,56.4z" class="st0"></path>
	</g>
	<path d="M45.9,59.2L81.8,72c5.9-7.5,9.3-17,9.3-27.6C91.1,19.1,71.7,0,45.9,0C20.2,0,0.8,19.1,0.8,44.4
		C0.8,55,4.2,64.5,10.1,72L45.9,59.2z" class="st1"></path>
</g>
</svg>
