<svg width="118" height="118" viewBox="0 0 118 118" fill="none" xmlns="http://www.w3.org/2000/svg">
<path d="M59 118C91.5848 118 118 91.5848 118 59C118 26.4152 91.5848 0 59 0C26.4152 0 0 26.4152 0 59C0 91.5848 26.4152 118 59 118Z" fill="#212E64"/>
<path d="M40.4753 66.7707H37.9273C36.6612 66.7707 35.6837 66.4323 34.9946 65.7556C34.3055 65.0788 33.9609 64.104 33.9609 62.8311V55.169C33.9609 53.896 34.3055 52.9212 34.9946 52.2444C35.6837 51.5676 36.6612 51.2292 37.9273 51.2292H40.4753C41.7253 51.2292 42.6949 51.5758 43.384 52.2687C44.0731 52.9454 44.4177 53.9121 44.4177 55.169V55.8941C44.4177 56.2486 44.2494 56.4258 43.9129 56.4258H41.8696C41.533 56.4258 41.3648 56.2486 41.3648 55.8941V55.314C41.3648 54.7984 41.2606 54.4358 41.0523 54.2264C40.8439 54.0008 40.4834 53.8881 39.9705 53.8881H38.408C37.9112 53.8881 37.5507 54.0008 37.3263 54.2264C37.118 54.4358 37.0138 54.7984 37.0138 55.314V62.686C37.0138 63.2017 37.118 63.5722 37.3263 63.7978C37.5507 64.0072 37.9112 64.112 38.408 64.112H39.9705C40.4834 64.112 40.8439 64.0072 41.0523 63.7978C41.2606 63.5722 41.3648 63.2017 41.3648 62.686V61.1632C41.3648 60.986 41.2766 60.8974 41.1003 60.8974H39.658C39.3215 60.8974 39.1532 60.7283 39.1532 60.3899V58.7463C39.1532 58.4079 39.3215 58.2387 39.658 58.2387H43.8648C44.2334 58.2387 44.4177 58.4239 44.4177 58.7945V62.8311C44.4177 64.0879 44.0731 65.0627 43.384 65.7556C42.6949 66.4323 41.7253 66.7707 40.4753 66.7707Z" fill="#FEFEFE"/>
<path d="M50.6181 64.112H53.2383C53.7511 64.112 54.1117 64.0072 54.32 63.7978C54.5444 63.5722 54.6566 63.2017 54.6566 62.686V55.314C54.6566 54.7984 54.5444 54.4358 54.32 54.2264C54.1117 54.0008 53.7511 53.8881 53.2383 53.8881H50.6181C50.4418 53.8881 50.3537 53.9767 50.3537 54.1539V63.8461C50.3537 64.0234 50.4418 64.112 50.6181 64.112ZM47.3008 66.2631V51.7369C47.3008 51.3985 47.4691 51.2292 47.8056 51.2292H53.7431C54.9931 51.2292 55.9627 51.5758 56.6518 52.2687C57.3569 52.9454 57.7095 53.9121 57.7095 55.169V62.8311C57.7095 64.0879 57.3569 65.0627 56.6518 65.7556C55.9627 66.4323 54.9931 66.7707 53.7431 66.7707H47.8056C47.4691 66.7707 47.3008 66.6015 47.3008 66.2631Z" fill="#FEFEFE"/>
<path d="M63.135 66.7707H61.0917C60.7552 66.7707 60.5869 66.6015 60.5869 66.2631V51.7369C60.5869 51.3985 60.7552 51.2292 61.0917 51.2292H66.9571C68.2071 51.2292 69.1767 51.5758 69.8658 52.2687C70.5549 52.9454 70.8994 53.9121 70.8994 55.169V57.4893C70.8994 58.7462 70.5549 59.7211 69.8658 60.4139C69.1767 61.0907 68.2071 61.4291 66.9571 61.4291H63.9283C63.7359 61.4291 63.6398 61.5177 63.6398 61.695V66.2631C63.6398 66.6015 63.4715 66.7707 63.135 66.7707ZM63.9042 58.7463H66.4523C66.9651 58.7463 67.3257 58.6415 67.534 58.432C67.7424 58.2064 67.8465 57.8438 67.8465 57.3443V55.314C67.8465 54.7984 67.7424 54.4358 67.534 54.2264C67.3257 54.0008 66.9651 53.8881 66.4523 53.8881H63.9042C63.7279 53.8881 63.6398 53.9767 63.6398 54.1539V58.4804C63.6398 58.6577 63.7279 58.7463 63.9042 58.7463Z" fill="#FEFEFE"/>
<path d="M75.8821 66.7707H73.8388C73.5022 66.7707 73.334 66.6015 73.334 66.2631V51.7369C73.334 51.3985 73.5022 51.2292 73.8388 51.2292H79.56C80.81 51.2292 81.7875 51.5758 82.4926 52.2687C83.1978 52.9615 83.5503 53.9363 83.5503 55.1932V57.0784C83.5503 58.8993 82.8372 60.1078 81.4109 60.704V60.8008L83.983 66.1906C84.1273 66.5773 83.991 66.7707 83.5744 66.7707H81.6273C81.3388 66.7707 81.1305 66.7386 81.0023 66.6741C80.8741 66.6097 80.7699 66.4726 80.6898 66.2631L78.2859 61.0424H76.6753C76.483 61.0424 76.3869 61.1311 76.3869 61.3083V66.2631C76.3869 66.6015 76.2186 66.7707 75.8821 66.7707ZM76.6513 58.577H79.0071C79.5199 58.577 79.8965 58.4723 80.1369 58.2628C80.3773 58.0372 80.4975 57.6827 80.4975 57.1993V55.314C80.4975 54.8145 80.3773 54.4519 80.1369 54.2264C79.8965 54.0008 79.5199 53.8881 79.0071 53.8881H76.6513C76.475 53.8881 76.3869 53.9767 76.3869 54.1539V58.3111C76.3869 58.4884 76.475 58.577 76.6513 58.577Z" fill="#FEFEFE"/>
<path d="M59.1436 9.7854L60.7267 14.6577H65.8498L61.7052 17.6689L63.2883 22.5412L59.1436 19.5299L54.999 22.5412L56.5821 17.6689L52.4375 14.6577H57.5606L59.1436 9.7854Z" fill="#F2EE14"/>
<path d="M59.1436 94.4001L60.7267 99.2724H65.8498L61.7052 102.284L63.2883 107.156L59.1436 104.145L54.999 107.156L56.5821 102.284L52.4375 99.2724H57.5606L59.1436 94.4001Z" fill="#F2EE14"/>
<path d="M37.8457 15.2539L39.4288 20.1262H44.5518L40.4072 23.1374L41.9903 28.0097L37.8457 24.9985L33.7011 28.0097L35.2842 23.1374L31.1396 20.1262H36.2626L37.8457 15.2539Z" fill="#F2EE14"/>
<path d="M37.8457 88.9316L39.4288 93.8039H44.5518L40.4072 96.8151L41.9903 101.687L37.8457 98.6762L33.7011 101.687L35.2842 96.8151L31.1396 93.8039H36.2626L37.8457 88.9316Z" fill="#F2EE14"/>
<path d="M80.4416 15.2539L78.8585 20.1262H73.7354L77.8801 23.1374L76.297 28.0097L80.4416 24.9985L84.5862 28.0097L83.0031 23.1374L87.1477 20.1262H82.0247L80.4416 15.2539Z" fill="#F2EE14"/>
<path d="M80.4416 88.9316L78.8585 93.8039H73.7354L77.8801 96.8151L76.297 101.687L80.4416 98.6762L84.5862 101.687L83.0031 96.8151L87.1477 93.8039H82.0247L80.4416 88.9316Z" fill="#F2EE14"/>
<path d="M22.3047 31.0828L23.8878 35.955H29.0108L24.8662 38.9663L26.4493 43.8385L22.3047 40.8273L18.1601 43.8385L19.7432 38.9663L15.5986 35.955H20.7216L22.3047 31.0828Z" fill="#F2EE14"/>
<path d="M22.3047 73.1021L23.8878 77.9743H29.0108L24.8662 80.9856L26.4493 85.8578L22.3047 82.8466L18.1601 85.8578L19.7432 80.9856L15.5986 77.9743H20.7216L22.3047 73.1021Z" fill="#F2EE14"/>
<path d="M95.9825 31.0828L94.3994 35.955H89.2764L93.421 38.9663L91.8379 43.8385L95.9825 40.8273L100.127 43.8385L98.544 38.9663L102.689 35.955H97.5656L95.9825 31.0828Z" fill="#F2EE14"/>
<path d="M95.9825 73.1021L94.3994 77.9743H89.2764L93.421 80.9856L91.8379 85.8578L95.9825 82.8466L100.127 85.8578L98.544 80.9856L102.689 77.9743H97.5656L95.9825 73.1021Z" fill="#F2EE14"/>
<path d="M16.5489 52.0923L18.132 56.9646H23.255L19.1104 59.9758L20.6935 64.8481L16.5489 61.8368L12.4043 64.8481L13.9874 59.9758L9.84277 56.9646H14.9658L16.5489 52.0923Z" fill="#F2EE14"/>
<path d="M101.739 52.0923L100.156 56.9646H95.0332L99.1778 59.9758L97.5947 64.8481L101.739 61.8368L105.884 64.8481L104.3 59.9758L108.445 56.9646H103.322L101.739 52.0923Z" fill="#F2EE14"/>
</svg>
