<svg width="139" height="118" viewBox="0 0 139 118" fill="none" xmlns="http://www.w3.org/2000/svg">
<path fill-rule="evenodd" clip-rule="evenodd" d="M66.3646 0.542543C60.3779 3.58237 63.4047 12.7433 70.026 11.6247C72.9434 11.132 75.0614 8.35146 74.7908 5.36911C74.6181 3.46447 73.6954 1.89429 72.1467 0.869518C70.6115 -0.146699 68.0112 -0.293744 66.3646 0.542543ZM50.6636 3.90159C47.8443 4.45662 46.8621 4.74724 44.2781 5.78966C42.6435 6.44922 39.7274 7.75204 37.7979 8.68458C32.804 11.0985 32.2204 12.064 34.9519 13.3919C36.0887 13.9445 36.7314 14.0271 40.9051 14.1568L45.5838 14.3022L48.1237 15.5238C49.5207 16.1957 51.9269 17.4469 53.4708 18.3043C58.5567 21.1292 60.529 22.1219 62.7392 22.9699C63.9399 23.4306 65.2299 24.0495 65.6056 24.3449C66.4365 24.9983 66.9514 24.7903 68.0422 23.3605C68.574 22.6632 68.7221 22.2606 68.5481 21.9847C68.4128 21.77 67.1225 20.9139 65.6807 20.0822C62.5855 18.2963 61.245 17.221 60.2028 15.6882C59.1019 14.0686 58.8038 13.0369 58.5442 9.95051C58.4011 8.24692 58.1461 6.92645 57.8699 6.45885C56.8264 4.69243 53.1936 3.40324 50.6636 3.90159ZM83.9643 4.16066C82.4209 4.5756 80.9956 5.50332 80.3213 6.53237C80.0748 6.90881 79.82 8.25334 79.6789 9.9235C79.384 13.412 78.868 14.8771 77.3336 16.5836C76.0885 17.9685 74.7945 18.8877 71.567 20.6805C70.565 21.2369 69.6822 21.8566 69.6052 22.0577C69.4429 22.4809 70.6896 24.2166 71.4473 24.6222C71.8373 24.8307 72.0801 24.7917 72.4445 24.462C72.7094 24.2222 74.3005 23.4522 75.9803 22.7507C77.6601 22.0491 79.689 21.1147 80.4892 20.6741C81.2894 20.2335 83.2074 19.1676 84.7514 18.3054C86.2954 17.4431 88.7016 16.1892 90.0985 15.5193L92.6384 14.3009L97.4545 14.1595C102.083 14.0239 102.319 13.9902 103.506 13.2949C105.026 12.4035 105.202 11.9942 104.465 11.0576C103.392 9.69331 92.6699 4.91781 88.9735 4.15799C86.5023 3.64975 85.8633 3.65028 83.9643 4.16066ZM30.3446 12.1522C23.6171 14.3584 12.2414 16.6601 3.07436 17.6693C1.45686 17.8476 0.0810516 18.0356 0.0171537 18.0872C-0.218654 18.2778 2.03783 20.3725 3.03078 20.8851C6.37807 22.6122 14.7992 22.5903 23.2426 20.8324C25.387 20.3859 38.7251 16.1141 39.729 15.5521C39.9138 15.4487 39.0679 15.3457 37.8493 15.323C35.1361 15.2727 33.1101 14.4394 32.1148 12.9647C31.5365 12.1075 31.0964 11.9057 30.3446 12.1522ZM106.175 12.9013C105.876 13.385 105.17 14.0397 104.606 14.3568C103.388 15.0415 100.578 15.5428 99.0656 15.3449L97.9855 15.2038L98.9212 15.6334C99.4359 15.8698 101.782 16.7248 104.135 17.5332C113.818 20.8615 118.493 21.8582 125.578 22.105C131.909 22.3256 134.889 21.6727 136.986 19.605C137.666 18.9344 138.222 18.2941 138.222 18.1818C138.222 18.0696 137.29 17.8947 136.15 17.7928C129.797 17.2258 117.179 14.8591 110.993 13.0746C108.987 12.4957 107.205 12.0222 107.032 12.0222C106.86 12.0222 106.474 12.4179 106.175 12.9013ZM66.3574 12.8778C65.5989 13.6363 66.1453 14.4284 67.427 14.4284C67.9529 14.4284 67.9652 14.5268 67.7805 17.2357L67.5893 20.0429H68.9774H70.3655L70.1744 17.2357L69.9829 14.4284L70.6166 14.4244C71.6269 14.4177 72.0132 14.0408 71.8157 13.254C71.643 12.5655 71.6106 12.557 69.1595 12.557C67.5861 12.557 66.5608 12.6743 66.3574 12.8778ZM40.5041 16.1622C38.0083 17.3886 35.2856 18.4449 29.7447 20.3362C23.8693 22.3416 19.6269 23.2365 15.0385 23.4383C13.0903 23.5241 11.4961 23.6837 11.4961 23.7928C11.4961 23.9019 12.1278 24.2465 12.8997 24.5588C17.5591 26.4431 26.122 26.5054 32.6171 24.7021C37.5218 23.3405 45.7271 19.7635 47.6732 18.1388C48.4184 17.5167 48.4705 17.3862 48.1358 16.983C47.4409 16.1454 45.6376 15.4289 43.9875 15.3348C42.5865 15.2546 42.1304 15.3628 40.5041 16.1622ZM91.8363 15.8591C91.1011 16.2018 90.3324 16.6841 90.1284 16.9309C89.5293 17.6549 90.3204 18.254 94.7601 20.4394C100.311 23.172 104.754 24.7024 109.615 25.5568C112.931 26.1397 119.156 26.133 121.914 25.5437C124.063 25.0847 126.726 24.1166 126.726 23.795C126.726 23.687 125.132 23.5249 123.184 23.4348C121.034 23.3354 118.345 23.0017 116.343 22.5863C111.868 21.6567 102.924 18.5946 98.0475 16.3227C95.2536 15.0212 93.8572 14.9169 91.8363 15.8591ZM49.1931 18.7347C48.0922 19.6862 40.5568 23.437 37.7519 24.4297C35.3789 25.2694 31.1528 26.3749 28.5362 26.8407L26.6016 27.185L27.8047 27.7358C29.8163 28.6568 32.037 28.9477 35.8925 28.7956C39.6708 28.6464 40.8458 28.352 45.1863 26.4672C47.2308 25.5796 55.6383 21.4398 55.873 21.2054C56.116 20.9626 54.6782 20.0036 52.4958 18.9529C51.2978 18.3759 50.2751 17.9089 50.2233 17.915C50.1714 17.9209 49.7078 18.2899 49.1931 18.7347ZM86.3587 18.6008C85.5518 18.9671 84.3046 19.6432 83.5873 20.1036C82.3652 20.8877 82.3147 20.9642 82.7821 21.3163C83.4764 21.8395 90.318 25.2694 92.9057 26.3918C97.4117 28.3459 98.536 28.6325 102.317 28.7918C106.149 28.9533 108.373 28.6659 110.417 27.7446L111.621 27.2024L108.546 26.584C105.205 25.9119 101.699 24.9371 99.4856 24.065C96.853 23.0271 90.3089 19.701 89.1304 18.8013C88.4839 18.3078 87.926 17.911 87.8904 17.9196C87.8551 17.9279 87.1656 18.2345 86.3587 18.6008ZM57.7485 24.4682C52.9436 25.4975 49.9859 27.1286 48.2347 29.7147C46.6867 32.0009 46.3284 36.1906 47.4307 39.119C48.7451 42.6112 49.9401 43.8394 53.8719 45.7398C57.3352 47.4139 59.8489 47.8195 71.8186 48.6355C74.9109 48.8464 75.9247 49.025 77.4117 49.6201C80.5531 50.8778 82.2564 53.3064 81.5332 55.4972C81.187 56.5465 80.2502 57.2195 77.466 58.4185C76.4735 58.846 75.6613 59.261 75.6613 59.3409C75.6613 59.4206 76.277 59.7048 77.0296 59.9719C77.7822 60.2392 79.157 60.9223 80.0844 61.4902L81.7707 62.5222L83.4614 61.2349C84.5455 60.4095 85.477 59.4056 86.0569 58.4381C86.9536 56.9409 86.9603 56.9066 86.8352 54.308C86.7271 52.0672 86.5975 51.4828 85.9398 50.2746C83.5742 45.928 79.8636 43.9798 72.453 43.1929C70.3209 42.9667 66.7402 42.5954 64.4958 42.3681C60.0526 41.9179 58.0308 41.3434 55.4415 39.7943C53.6641 38.7313 52.9511 37.4763 52.942 35.3966C52.9332 33.3759 53.6355 31.6437 55.0651 30.1607C56.5457 28.6247 57.0523 28.5566 59.9534 29.5035C61.5335 30.0193 62.1618 30.1011 63.2368 29.9302C65.0377 29.6442 66.7718 28.9178 67.2359 28.255C67.5703 27.7775 67.5658 27.6184 67.1998 26.9987C66.6605 26.0859 64.6011 24.7074 63.2293 24.3414C61.8195 23.9655 59.8863 24.0099 57.7485 24.4682ZM74.8277 24.4224C73.5623 24.8745 72.1953 25.7293 71.424 26.5503C70.099 27.9606 71.2048 29.1129 74.5523 29.811C76.315 30.1786 76.5238 30.1709 77.7365 29.6928C79.8406 28.8635 81.4164 28.721 82.2738 29.283C83.3288 29.9741 83.8934 30.6858 84.6624 32.2934C85.2444 33.5107 85.3283 34.0005 85.2431 35.6885C85.1695 37.1435 84.9992 37.8579 84.5945 38.4099C83.8138 39.4751 79.3618 41.6808 77.5852 41.8829C75.9447 42.0692 76.0332 42.2561 78.0675 42.9018C78.8763 43.1584 80.6756 43.9089 82.0663 44.5698C84.5621 45.7558 84.6051 45.7654 85.4203 45.3264C88.2719 43.7907 90.0771 41.6297 91.0246 38.6177C91.6869 36.512 91.5034 32.7554 90.6423 30.7911C89.8932 29.0814 87.6613 26.9607 85.596 25.9958C84.0442 25.2708 78.5856 24.0693 76.8644 24.0738C76.2762 24.0754 75.3597 24.2324 74.8277 24.4224ZM64.0231 25.644C64.2161 25.9563 63.3547 26.4322 62.8951 26.2675C62.7114 26.2014 62.5609 25.9771 62.5609 25.7688C62.5609 25.3427 63.7728 25.2392 64.0231 25.644ZM75.5193 25.644C75.7731 26.0544 74.7788 26.4517 74.2451 26.153C73.9885 26.0095 73.8484 25.779 73.9337 25.6411C74.1358 25.3138 75.3167 25.3162 75.5193 25.644ZM67.3212 30.5366C67.0386 31.764 66.965 33.4315 67.0437 36.8194L67.1511 41.4313H68.9999H70.8489L70.8711 37.3542C70.8834 35.1118 70.9251 32.9858 70.9636 32.63C71.0021 32.2739 70.8569 31.2814 70.6409 30.4243L70.2484 28.8656H68.9772H67.7056L67.3212 30.5366ZM53.6815 48.2219C52.2279 50.0436 51.5691 51.7871 51.4109 54.232C51.2737 56.3489 51.3192 56.662 51.9416 57.879C53.1797 60.2999 55.5666 62.1631 58.7829 63.2194C61.6901 64.1742 65.1807 64.6859 68.8438 64.6939C72.5779 64.7022 75.191 65.2372 76.4511 66.2507C78.0098 67.5046 78.6022 68.5898 78.6022 70.191C78.6022 71.4069 78.4897 71.7138 77.786 72.4175C77.3374 72.8664 76.4952 73.3757 75.9145 73.5498C74.8817 73.8591 74.4815 74.316 75.2434 74.316C75.4547 74.316 76.4046 74.8481 77.3545 75.4983L79.0813 76.6805L80.6419 75.4237C81.7578 74.5246 82.3326 73.8262 82.6601 72.9712C84.0106 69.4475 82.3046 64.5273 78.9653 62.3152C76.8805 60.9346 74.5422 60.4002 68.8571 60.0053C63.7977 59.654 61.7864 59.2409 59.4863 58.0817C55.5081 56.0765 55.8244 52.1488 60.1384 49.9848L61.3252 49.3894L58.9353 48.775C57.621 48.4371 56.0543 47.9823 55.4541 47.7644L54.3625 47.3685L53.6815 48.2219ZM67.4337 54.0639L67.507 58.6757H68.9774H70.4479L70.5211 54.0639L70.5941 49.452H68.9774H67.3607L67.4337 54.0639ZM56.6981 64.7244C56.4187 65.1837 55.9246 66.3852 55.6 67.3945C54.4288 71.0372 55.3306 73.9289 58.28 75.9897C60.6333 77.6336 62.5331 78.0948 67.7743 78.2935C73.1893 78.4988 74.3871 78.8961 75.545 80.8716C77.1761 83.655 76.4644 85.5252 73.1214 87.2405C72.3862 87.6175 71.983 87.9319 72.2253 87.9386C72.4678 87.9455 73.3588 88.3155 74.2053 88.7607L75.7445 89.5705L76.7243 88.8914C79.7893 86.7673 80.7911 82.9465 79.1188 79.7572C78.0638 77.7448 77.2898 76.95 75.4314 75.9709C73.5733 74.9916 71.7154 74.5863 69.0312 74.574C66.4148 74.5622 63.232 73.9981 61.8757 73.3059C60.2258 72.464 59.7826 71.8213 59.8055 70.3046C59.8309 68.6155 60.59 67.1434 61.8698 66.3018L62.8761 65.6401L61.7161 65.3334C61.0779 65.1647 59.9197 64.7706 59.1422 64.4578C57.3317 63.7293 57.3012 63.7328 56.6981 64.7244ZM67.6407 69.5852V73.5434L68.9106 73.4618L70.1805 73.3803L70.2541 69.5036L70.3278 65.627H68.9841H67.6407V69.5852ZM59.5294 78.7942C57.7731 82.2685 58.0643 85.3856 60.3683 87.7736C62.1511 89.6218 65.0035 90.7204 68.8438 91.0386C71.2772 91.2404 73.0289 91.8904 73.6035 92.8052C74.2743 93.8731 74.3376 95.1646 73.9163 99.1801C73.0567 107.371 72.6937 108.568 70.6995 109.792C70.2166 110.088 70.2311 110.111 70.9064 110.126C71.905 110.148 73.3316 108.83 73.9992 107.269C74.9301 105.094 76.5377 97.1794 76.569 94.6176C76.5936 92.6103 76.5176 92.2112 75.9527 91.3853C74.7098 89.5673 73.4901 89.0131 69.2448 88.3385C63.5084 87.4268 60.9517 84.829 62.5221 81.5071C62.8277 80.8606 63.2681 80.0743 63.5007 79.7599C63.9151 79.199 63.8878 79.1776 62.0642 78.6236C61.0418 78.313 60.1368 78.059 60.0531 78.059C59.9694 78.059 59.7339 78.39 59.5294 78.7942ZM67.908 83.1387V87.1491H68.9774H70.0469V83.1387V79.1284H68.9774H67.908V83.1387ZM62.0527 91.3201C61.3356 92.2318 61.1161 93.506 61.3273 95.5285C61.5984 98.1259 63.5311 106.493 64.1319 107.67C64.8075 108.995 66.1352 110.142 66.9929 110.142C67.8473 110.142 67.8102 109.976 66.8431 109.476C66.4044 109.249 65.871 108.726 65.658 108.313C65.0914 107.218 64.4925 103.877 64.045 99.3137C63.6129 94.9112 63.7509 93.3726 64.6642 92.4005L65.2296 91.7984L64.0217 91.2115C63.3576 90.8888 62.7657 90.6247 62.7069 90.6247C62.6478 90.6247 62.3534 90.9378 62.0527 91.3201ZM68.1762 102.723C68.2013 108.494 68.1911 113.818 68.1537 114.553C68.1115 115.386 68.2633 116.287 68.5572 116.945L69.0285 118L69.5509 116.544C69.9396 115.46 70.0244 114.781 69.8827 113.885C69.7779 113.223 69.7252 108.08 69.7651 102.455L69.838 92.2288H68.9841H68.1302L68.1762 102.723Z" fill="#1C90D0"/>
</svg>
