<svg width="118" height="118" viewBox="0 0 118 118" fill="none" xmlns="http://www.w3.org/2000/svg">
<path d="M59 118C91.5848 118 118 91.5848 118 59C118 26.4152 91.5848 0 59 0C26.4152 0 0 26.4152 0 59C0 91.5848 26.4152 118 59 118Z" fill="url(#paint0_linear_231_2381)"/>
<path d="M58.9999 105.493C84.6774 105.493 105.493 84.6774 105.493 58.9999C105.493 33.3225 84.6774 12.5068 58.9999 12.5068C33.3225 12.5068 12.5068 33.3225 12.5068 58.9999C12.5068 84.6774 33.3225 105.493 58.9999 105.493Z" fill="url(#paint1_linear_231_2381)"/>
<path d="M24.9912 53.4245L31.7451 36.2415H33.5827L40.1695 53.4245H38.4989L36.5181 48.0309H28.6903L26.6618 53.4245H24.9912ZM29.2392 46.6467H35.9692L32.6042 37.6257L29.2392 46.6467ZM43.057 53.4245V36.2415H44.6798V53.4245H43.057ZM61.3215 41.2293C60.9874 39.7656 60.3669 38.7235 59.4601 38.103C58.5532 37.4825 57.3679 37.1722 55.9041 37.1722C54.87 37.1722 53.979 37.3791 53.2312 37.7927C52.4835 38.2064 51.863 38.7633 51.3697 39.4633C50.8924 40.1634 50.5345 40.9748 50.2958 41.8976C50.0731 42.8044 49.9617 43.767 49.9617 44.7853C49.9617 45.7399 50.0572 46.6786 50.2481 47.6013C50.4549 48.5241 50.789 49.3515 51.2504 50.0833C51.7118 50.7993 52.3323 51.38 53.1119 51.8255C53.8915 52.271 54.87 52.4937 56.0473 52.4937C56.7792 52.4937 57.4474 52.3744 58.052 52.1357C58.6566 51.8971 59.1816 51.5709 59.6271 51.1573C60.0885 50.7277 60.4704 50.2265 60.7726 49.6538C61.0908 49.081 61.3295 48.4525 61.4886 47.7684H63.183C62.9921 48.5957 62.7137 49.3833 62.3478 50.1311C61.9818 50.8629 61.4966 51.5073 60.892 52.0641C60.3033 52.621 59.5794 53.0665 58.7202 53.4006C57.877 53.7188 56.8826 53.8779 55.7371 53.8779C54.4165 53.8779 53.2869 53.6392 52.3482 53.1619C51.4095 52.6687 50.6379 52.0085 50.0333 51.1811C49.4446 50.3538 49.015 49.3992 48.7446 48.3173C48.4741 47.2195 48.3389 46.0581 48.3389 44.833C48.3389 43.1942 48.5377 41.8021 48.9355 40.6566C49.3492 39.511 49.914 38.5803 50.6299 37.8643C51.3459 37.1325 52.1891 36.6074 53.1596 36.2892C54.1302 35.9551 55.1882 35.7881 56.3337 35.7881C57.2088 35.7881 58.0202 35.9074 58.768 36.146C59.5317 36.3688 60.1999 36.7109 60.7726 37.1722C61.3613 37.6336 61.8386 38.2064 62.2046 38.8905C62.5864 39.5588 62.8489 40.3384 62.9921 41.2293H61.3215ZM66.2779 53.4245V36.2415H72.5544C73.6681 36.2415 74.583 36.3688 75.2989 36.6233C76.0308 36.8779 76.6035 37.2279 77.0172 37.6734C77.4468 38.1189 77.7411 38.636 77.9002 39.2247C78.0752 39.7974 78.1627 40.402 78.1627 41.0384C78.1627 41.993 77.9639 42.7806 77.5661 43.4011C77.1843 44.0216 76.6831 44.5148 76.0626 44.8807C75.4421 45.2307 74.7341 45.4773 73.9386 45.6205C73.159 45.7637 72.3715 45.8353 71.5759 45.8353H67.9007V53.4245H66.2779ZM71.6237 44.4511C72.3874 44.4511 73.0715 44.4034 73.6761 44.3079C74.2807 44.2125 74.7898 44.0375 75.2035 43.7829C75.633 43.5124 75.9592 43.1545 76.1819 42.709C76.4206 42.2476 76.5399 41.651 76.5399 40.9191C76.5399 39.8372 76.1819 39.0178 75.466 38.461C74.7659 37.9041 73.6443 37.6257 72.101 37.6257H67.9007V44.4511H71.6237ZM77.5926 53.4245L84.3464 36.2415H86.1841L92.7709 53.4245H91.1003L89.1195 48.0309H81.2917L79.2632 53.4245H77.5926ZM81.8406 46.6467H88.5706L85.2056 37.6257L81.8406 46.6467Z" fill="white"/>
<path d="M37.0897 75.0854C37.1534 75.8491 37.3205 76.5014 37.591 77.0424C37.8774 77.5674 38.2352 77.997 38.6648 78.3311C39.1103 78.6652 39.6194 78.9118 40.1922 79.0709C40.765 79.2141 41.3776 79.2857 42.0299 79.2857C42.7936 79.2857 43.4539 79.1902 44.0107 78.9993C44.5676 78.8084 45.0209 78.5538 45.3709 78.2356C45.721 77.9015 45.9756 77.5197 46.1347 77.0901C46.3097 76.6605 46.3971 76.2071 46.3971 75.7298C46.3971 75.0616 46.246 74.5206 45.9437 74.107C45.6414 73.6933 45.2438 73.3592 44.7505 73.1046C44.2732 72.8341 43.7163 72.6194 43.0799 72.4603C42.4594 72.3012 41.8151 72.15 41.1469 72.0068C40.4946 71.8477 39.8501 71.6647 39.2137 71.4579C38.5932 71.2511 38.0365 70.9727 37.5433 70.6226C37.0659 70.2726 36.676 69.8271 36.3738 69.2862C36.0715 68.7293 35.9203 68.0293 35.9203 67.186C35.9203 66.5974 36.0397 66.0246 36.2784 65.4677C36.533 64.9109 36.8988 64.4177 37.3761 63.9881C37.8693 63.5585 38.4819 63.2165 39.2137 62.9619C39.9456 62.7073 40.7889 62.5801 41.7435 62.5801C42.7141 62.5801 43.5573 62.7153 44.2732 62.9858C45.0051 63.2562 45.6096 63.6301 46.0869 64.1074C46.5642 64.5688 46.9223 65.1098 47.1609 65.7303C47.3996 66.3508 47.5188 67.011 47.5188 67.7111H45.9677C45.9677 67.0588 45.8482 66.494 45.6096 66.0166C45.3869 65.5393 45.0767 65.1495 44.679 64.8473C44.2812 64.545 43.8278 64.3222 43.3186 64.179C42.8095 64.0358 42.2845 63.9642 41.7435 63.9642C40.9162 63.9642 40.2161 64.0836 39.6433 64.3222C39.0864 64.545 38.6411 64.8393 38.3069 65.2052C37.9728 65.5712 37.742 65.9769 37.6147 66.4224C37.4875 66.8678 37.4637 67.3133 37.5433 67.7588C37.6387 68.3157 37.8614 68.7611 38.2114 69.0953C38.5614 69.4294 38.991 69.7078 39.5001 69.9305C40.0092 70.1374 40.5661 70.3124 41.1707 70.4556C41.7912 70.5829 42.4196 70.7261 43.056 70.8852C43.6924 71.0283 44.3051 71.2034 44.8937 71.4102C45.4983 71.617 46.0312 71.8954 46.4926 72.2455C46.954 72.5955 47.32 73.0489 47.5905 73.6058C47.8769 74.1467 48.0201 74.8309 48.0201 75.6582C48.0201 77.2492 47.4711 78.4822 46.3733 79.3573C45.2755 80.2324 43.7323 80.6699 41.7435 80.6699C40.8526 80.6699 40.0252 80.5506 39.2615 80.3119C38.4979 80.0892 37.8376 79.7471 37.2807 79.2857C36.7239 78.8084 36.2863 78.2277 35.968 77.5435C35.6658 76.8435 35.5146 76.0241 35.5146 75.0854H37.0897ZM50.3428 71.6488C50.3428 70.3919 50.5098 69.2146 50.8439 68.1168C51.1939 67.019 51.7031 66.0644 52.3713 65.253C53.0395 64.4256 53.8669 63.7733 54.8534 63.296C55.8398 62.8187 56.9773 62.5801 58.266 62.5801C59.6024 62.5801 60.7718 62.8187 61.7743 63.296C62.7925 63.7574 63.6357 64.4018 64.3039 65.2291C64.988 66.0405 65.4973 67.0031 65.8314 68.1168C66.1814 69.2146 66.3563 70.3919 66.3563 71.6488C66.3563 72.8898 66.1814 74.0592 65.8314 75.157C65.4973 76.2389 64.9961 77.1935 64.3279 78.0209C63.6596 78.8323 62.8242 79.4766 61.8219 79.9539C60.8196 80.4312 59.6582 80.6699 58.3377 80.6699C57.0171 80.6699 55.8557 80.4312 54.8534 79.9539C53.851 79.4766 53.0157 78.8323 52.3475 78.0209C51.6793 77.1935 51.178 76.2389 50.8439 75.157C50.5098 74.0592 50.3428 72.8898 50.3428 71.6488ZM58.3615 79.2857C59.4752 79.2857 60.4298 79.0789 61.2253 78.6652C62.0367 78.2356 62.6971 77.6708 63.2062 76.9708C63.7312 76.2707 64.113 75.4593 64.3516 74.5365C64.6062 73.6137 64.7336 72.6512 64.7336 71.6488C64.7336 70.4556 64.5824 69.3896 64.2801 68.4509C63.9937 67.4963 63.5721 66.6849 63.0153 66.0166C62.4584 65.3484 61.7821 64.8393 60.9866 64.4893C60.1911 64.1393 59.3003 63.9642 58.3138 63.9642C57.216 63.9642 56.2614 64.179 55.45 64.6086C54.6545 65.0382 53.9942 65.6109 53.4692 66.3269C52.9601 67.0269 52.5782 67.8384 52.3237 68.7611C52.085 69.6839 51.9656 70.6465 51.9656 71.6488C51.9656 72.6671 52.085 73.6376 52.3237 74.5604C52.5782 75.4832 52.9601 76.2946 53.4692 76.9946C53.9942 77.6947 54.6545 78.2515 55.45 78.6652C56.2614 79.0789 57.2318 79.2857 58.3615 79.2857ZM81.781 68.0213C81.4469 66.5576 80.8263 65.5155 79.9194 64.895C79.0125 64.2745 77.8272 63.9642 76.3635 63.9642C75.3293 63.9642 74.4384 64.1711 73.6907 64.5847C72.9429 64.9984 72.3223 65.5553 71.8291 66.2553C71.3518 66.9553 70.9938 67.7668 70.7551 68.6896C70.5324 69.5964 70.4211 70.559 70.4211 71.5772C70.4211 72.5319 70.5166 73.4706 70.7075 74.3933C70.9143 75.3161 71.2484 76.1435 71.7098 76.8753C72.1711 77.5913 72.7917 78.172 73.5713 78.6175C74.3509 79.063 75.3294 79.2857 76.5068 79.2857C77.2386 79.2857 77.9069 79.1664 78.5114 78.9277C79.116 78.6891 79.641 78.3629 80.0864 77.9493C80.5478 77.5197 80.9297 77.0185 81.232 76.4457C81.5502 75.873 81.7889 75.2445 81.948 74.5604H83.6424C83.4514 75.3877 83.1731 76.1753 82.8072 76.9231C82.4412 77.6549 81.9559 78.2993 81.3513 78.8561C80.7626 79.413 80.0387 79.8585 79.1796 80.1926C78.3363 80.5108 77.3419 80.6699 76.1964 80.6699C74.8759 80.6699 73.7463 80.4312 72.8076 79.9539C71.8689 79.4607 71.0973 78.8004 70.4927 77.9731C69.9041 77.1458 69.4744 76.1912 69.2039 75.1093C68.9334 74.0115 68.7982 72.8501 68.7982 71.625C68.7982 69.9862 68.9972 68.5941 69.3949 67.4486C69.8086 66.303 70.3733 65.3723 71.0893 64.6563C71.8052 63.9245 72.6485 63.3994 73.619 63.0812C74.5895 62.7471 75.6476 62.5801 76.7931 62.5801C77.6682 62.5801 78.4795 62.6994 79.2273 62.938C79.991 63.1608 80.6592 63.5028 81.232 63.9642C81.8207 64.4256 82.298 64.9984 82.6639 65.6825C83.0457 66.3508 83.3083 67.1304 83.4514 68.0213H81.781Z" fill="white"/>
<path d="M35.326 91.5509C35.326 91.717 35.3866 91.8479 35.508 91.9437C35.6293 92.0395 35.773 92.0874 35.9391 92.0874C36.1413 92.0874 36.3372 92.0406 36.5267 91.9469C36.846 91.7915 37.0057 91.5371 37.0057 91.1837V90.7207C36.9354 90.7654 36.8449 90.8026 36.7342 90.8324C36.6235 90.8622 36.5149 90.8835 36.4085 90.8963L36.0604 90.941C35.8518 90.9687 35.6953 91.0123 35.591 91.0719C35.4143 91.172 35.326 91.3317 35.326 91.5509ZM36.7183 90.3886C36.8502 90.3715 36.9386 90.3162 36.9833 90.2225C37.0089 90.1714 37.0216 90.098 37.0216 90.0022C37.0216 89.8063 36.9514 89.6647 36.8109 89.5774C36.6725 89.488 36.4734 89.4433 36.2137 89.4433C35.9135 89.4433 35.7006 89.5242 35.575 89.686C35.5048 89.7754 35.459 89.9085 35.4377 90.0852H34.9012C34.9119 89.6637 35.0481 89.3709 35.31 89.207C35.574 89.041 35.8795 88.9579 36.2265 88.9579C36.6288 88.9579 36.9556 89.0346 37.2068 89.1879C37.4559 89.3411 37.5805 89.5796 37.5805 89.9032V91.8735C37.5805 91.9331 37.5922 91.981 37.6156 92.0172C37.6411 92.0534 37.6933 92.0714 37.7721 92.0714C37.7976 92.0714 37.8263 92.0704 37.8583 92.0683C37.8902 92.064 37.9243 92.0587 37.9605 92.0523V92.477C37.8711 92.5026 37.8029 92.5185 37.7561 92.5249C37.7093 92.5313 37.6454 92.5345 37.5645 92.5345C37.3665 92.5345 37.2228 92.4642 37.1334 92.3237C37.0866 92.2492 37.0536 92.1438 37.0344 92.0076C36.9173 92.1609 36.7491 92.2939 36.5298 92.4068C36.3106 92.5196 36.0689 92.576 35.805 92.576C35.4878 92.576 35.228 92.4802 35.0258 92.2886C34.8257 92.0949 34.7256 91.8532 34.7256 91.5637C34.7256 91.2465 34.8246 91.0006 35.0226 90.826C35.2206 90.6515 35.4803 90.544 35.8018 90.5035L36.7183 90.3886ZM38.5257 89.0569H39.1101V92.461H38.5257V89.0569ZM38.5257 87.77H39.1101V88.4214H38.5257V87.77ZM41.3007 88.942C41.686 88.942 41.999 89.0356 42.2396 89.223C42.4823 89.4103 42.6281 89.7329 42.677 90.1906H42.1182C42.0841 89.9798 42.0064 89.8052 41.8851 89.6669C41.7637 89.5263 41.569 89.4561 41.3007 89.4561C40.9345 89.4561 40.6727 89.6349 40.5151 89.9926C40.413 90.2246 40.3619 90.511 40.3619 90.8516C40.3619 91.1943 40.4342 91.4828 40.579 91.717C40.7238 91.9512 40.9516 92.0683 41.2624 92.0683C41.5008 92.0683 41.6892 91.9959 41.8276 91.8511C41.9681 91.7042 42.065 91.5041 42.1182 91.2508H42.677C42.6132 91.7042 42.4535 92.0363 42.198 92.2471C41.9426 92.4557 41.6158 92.56 41.2177 92.56C40.7706 92.56 40.414 92.3972 40.1479 92.0714C39.8818 91.7436 39.7487 91.3348 39.7487 90.8452C39.7487 90.2449 39.8946 89.7776 40.1862 89.4433C40.4779 89.1091 40.8494 88.942 41.3007 88.942ZM44.6952 92.0746C44.9635 92.0746 45.186 91.9629 45.3627 91.7393C45.5415 91.5137 45.6309 91.1773 45.6309 90.7302C45.6309 90.4577 45.5915 90.2236 45.5127 90.0277C45.3637 89.6509 45.0912 89.4625 44.6952 89.4625C44.2971 89.4625 44.0246 89.6615 43.8777 90.0596C43.799 90.2725 43.7596 90.5429 43.7596 90.8707C43.7596 91.1347 43.799 91.3593 43.8777 91.5445C44.0268 91.8979 44.2993 92.0746 44.6952 92.0746ZM43.2071 89.0569H43.766V89.5104C43.8809 89.355 44.0065 89.2347 44.1428 89.1495C44.3365 89.0218 44.5643 88.9579 44.8262 88.9579C45.2136 88.9579 45.5425 89.107 45.8129 89.405C46.0833 89.7009 46.2185 90.1246 46.2185 90.676C46.2185 91.4211 46.0237 91.9533 45.6341 92.2726C45.3871 92.4749 45.0997 92.576 44.7719 92.576C44.5143 92.576 44.2982 92.5196 44.1236 92.4068C44.0214 92.3429 43.9075 92.2332 43.7819 92.0778V93.8246H43.2071V89.0569ZM47.3329 91.5509C47.3329 91.717 47.3936 91.8479 47.515 91.9437C47.6363 92.0395 47.78 92.0874 47.9461 92.0874C48.1483 92.0874 48.3442 92.0406 48.5336 91.9469C48.853 91.7915 49.0127 91.5371 49.0127 91.1837V90.7207C48.9424 90.7654 48.8519 90.8026 48.7412 90.8324C48.6305 90.8622 48.5219 90.8835 48.4155 90.8963L48.0674 90.941C47.8588 90.9687 47.7023 91.0123 47.598 91.0719C47.4213 91.172 47.3329 91.3317 47.3329 91.5509ZM48.7253 90.3886C48.8572 90.3715 48.9456 90.3162 48.9903 90.2225C49.0158 90.1714 49.0286 90.098 49.0286 90.0022C49.0286 89.8063 48.9584 89.6647 48.8179 89.5774C48.6795 89.488 48.4804 89.4433 48.2207 89.4433C47.9205 89.4433 47.7076 89.5242 47.582 89.686C47.5118 89.7754 47.466 89.9085 47.4447 90.0852H46.9082C46.9189 89.6637 47.0551 89.3709 47.317 89.207C47.581 89.041 47.8865 88.9579 48.2335 88.9579C48.6358 88.9579 48.9626 89.0346 49.2138 89.1879C49.4629 89.3411 49.5875 89.5796 49.5875 89.9032V91.8735C49.5875 91.9331 49.5992 91.981 49.6226 92.0172C49.6481 92.0534 49.7003 92.0714 49.7791 92.0714C49.8046 92.0714 49.8333 92.0704 49.8653 92.0683C49.8972 92.064 49.9313 92.0587 49.9675 92.0523V92.477C49.878 92.5026 49.8099 92.5185 49.7631 92.5249C49.7163 92.5313 49.6524 92.5345 49.5715 92.5345C49.3735 92.5345 49.2298 92.4642 49.1404 92.3237C49.0936 92.2492 49.0606 92.1438 49.0414 92.0076C48.9243 92.1609 48.7561 92.2939 48.5368 92.4068C48.3176 92.5196 48.0759 92.576 47.812 92.576C47.4947 92.576 47.235 92.4802 47.0328 92.2886C46.8327 92.0949 46.7326 91.8532 46.7326 91.5637C46.7326 91.2465 46.8316 91.0006 47.0296 90.826C47.2276 90.6515 47.4873 90.544 47.8088 90.5035L48.7253 90.3886ZM50.67 91.7649H51.3374V92.461H50.67V91.7649ZM53.7101 92.0906C54.0911 92.0906 54.3519 91.9469 54.4924 91.6595C54.6351 91.37 54.7064 91.0485 54.7064 90.6951C54.7064 90.3758 54.6553 90.1161 54.5531 89.9159C54.3913 89.6009 54.1124 89.4433 53.7165 89.4433C53.3652 89.4433 53.1097 89.5774 52.9501 89.8457C52.7904 90.1139 52.7106 90.4375 52.7106 90.8165C52.7106 91.1805 52.7904 91.4839 52.9501 91.7266C53.1097 91.9693 53.3631 92.0906 53.7101 92.0906ZM53.7324 88.942C54.1731 88.942 54.5457 89.0889 54.8501 89.3826C55.1545 89.6764 55.3067 90.1086 55.3067 90.6791C55.3067 91.2305 55.1726 91.6861 54.9044 92.0459C54.6361 92.4057 54.2199 92.5856 53.6558 92.5856C53.1853 92.5856 52.8117 92.427 52.5349 92.1098C52.2582 91.7904 52.1198 91.3625 52.1198 90.826C52.1198 90.2512 52.2656 89.7935 52.5573 89.4529C52.8489 89.1123 53.2406 88.942 53.7324 88.942ZM56.0093 89.041H56.5553V89.6317C56.6001 89.5168 56.7097 89.3773 56.8843 89.2134C57.0588 89.0473 57.26 88.9643 57.4878 88.9643C57.4984 88.9643 57.5165 88.9654 57.5421 88.9675C57.5676 88.9696 57.6113 88.9739 57.673 88.9803V89.587C57.639 89.5806 57.607 89.5764 57.5772 89.5742C57.5495 89.5721 57.5187 89.5711 57.4846 89.5711C57.1951 89.5711 56.9726 89.6647 56.8172 89.8521C56.6618 90.0373 56.5841 90.2512 56.5841 90.4939V92.461H56.0093V89.041ZM59.3783 88.9803C59.6465 88.9803 59.8807 89.0463 60.0808 89.1783C60.1894 89.2528 60.3001 89.3614 60.4129 89.504V89.0729H60.943V92.1832C60.943 92.6175 60.8791 92.9603 60.7514 93.2115C60.513 93.6756 60.0627 93.9076 59.4006 93.9076C59.0323 93.9076 58.7226 93.8246 58.4714 93.6585C58.2201 93.4946 58.0796 93.237 58.0498 92.8858H58.6342C58.6619 93.039 58.7172 93.1572 58.8003 93.2402C58.9301 93.3679 59.1345 93.4318 59.4134 93.4318C59.8541 93.4318 60.1425 93.2764 60.2788 92.9656C60.3597 92.7825 60.3969 92.4557 60.3906 91.9852C60.2756 92.1598 60.1372 92.2897 59.9754 92.3748C59.8136 92.46 59.5997 92.5026 59.3336 92.5026C58.9631 92.5026 58.6385 92.3716 58.3596 92.1098C58.0828 91.8458 57.9445 91.4104 57.9445 90.8037C57.9445 90.231 58.0839 89.7839 58.3628 89.4625C58.6438 89.141 58.9823 88.9803 59.3783 88.9803ZM60.4129 90.7366C60.4129 90.313 60.3256 89.999 60.1511 89.7946C59.9765 89.5902 59.754 89.488 59.4836 89.488C59.0792 89.488 58.8024 89.6775 58.6534 90.0564C58.5746 90.2587 58.5352 90.5237 58.5352 90.8516C58.5352 91.2369 58.6129 91.5307 58.7683 91.733C58.9259 91.9331 59.1366 92.0331 59.4006 92.0331C59.8136 92.0331 60.1042 91.8468 60.2724 91.4743C60.3661 91.2635 60.4129 91.0176 60.4129 90.7366ZM62.8782 87.77H63.3636L61.8755 92.461H61.3901L62.8782 87.77ZM63.9735 91.3881C63.9905 91.5797 64.0384 91.7266 64.1172 91.8288C64.262 92.014 64.5132 92.1066 64.8708 92.1066C65.0837 92.1066 65.2711 92.0608 65.4329 91.9693C65.5947 91.8756 65.6756 91.7319 65.6756 91.5382C65.6756 91.3913 65.6106 91.2795 65.4808 91.2029C65.3977 91.156 65.2338 91.1017 64.989 91.04L64.5323 90.925C64.2407 90.8527 64.0257 90.7718 63.8873 90.6823C63.6403 90.5269 63.5168 90.3119 63.5168 90.0373C63.5168 89.7137 63.6329 89.4518 63.8649 89.2517C64.0991 89.0516 64.4131 88.9515 64.807 88.9515C65.3222 88.9515 65.6936 89.1027 65.9214 89.405C66.0641 89.5966 66.1333 89.8031 66.129 90.0245H65.5861C65.5755 89.8946 65.5297 89.7765 65.4488 89.67C65.3168 89.5189 65.088 89.4433 64.7623 89.4433C64.5451 89.4433 64.3801 89.4848 64.2673 89.5679C64.1566 89.6509 64.1012 89.7605 64.1012 89.8968C64.1012 90.0458 64.1747 90.165 64.3216 90.2544C64.4067 90.3077 64.5323 90.3545 64.6984 90.3949L65.0784 90.4875C65.4914 90.5876 65.7682 90.6845 65.9087 90.7781C66.1322 90.925 66.244 91.156 66.244 91.4711C66.244 91.7755 66.1279 92.0385 65.8959 92.2599C65.666 92.4813 65.3147 92.592 64.8421 92.592C64.3333 92.592 63.9724 92.477 63.7595 92.2471C63.5488 92.015 63.4359 91.7287 63.421 91.3881H63.9735ZM68.259 92.0906C68.64 92.0906 68.9008 91.9469 69.0413 91.6595C69.184 91.37 69.2553 91.0485 69.2553 90.6951C69.2553 90.3758 69.2042 90.1161 69.102 89.9159C68.9402 89.6009 68.6613 89.4433 68.2654 89.4433C67.9141 89.4433 67.6586 89.5774 67.499 89.8457C67.3393 90.1139 67.2595 90.4375 67.2595 90.8165C67.2595 91.1805 67.3393 91.4839 67.499 91.7266C67.6586 91.9693 67.912 92.0906 68.259 92.0906ZM68.2813 88.942C68.722 88.942 69.0946 89.0889 69.399 89.3826C69.7034 89.6764 69.8556 90.1086 69.8556 90.6791C69.8556 91.2305 69.7215 91.6861 69.4533 92.0459C69.185 92.4057 68.7688 92.5856 68.2047 92.5856C67.7342 92.5856 67.3606 92.427 67.0838 92.1098C66.8071 91.7904 66.6687 91.3625 66.6687 90.826C66.6687 90.2512 66.8145 89.7935 67.1062 89.4529C67.3978 89.1123 67.7895 88.942 68.2813 88.942ZM71.8611 88.942C72.2464 88.942 72.5593 89.0356 72.7999 89.223C73.0426 89.4103 73.1884 89.7329 73.2374 90.1906H72.6786C72.6445 89.9798 72.5668 89.8052 72.4455 89.6669C72.3241 89.5263 72.1293 89.4561 71.8611 89.4561C71.4949 89.4561 71.233 89.6349 71.0755 89.9926C70.9733 90.2246 70.9222 90.511 70.9222 90.8516C70.9222 91.1943 70.9946 91.4828 71.1394 91.717C71.2841 91.9512 71.5119 92.0683 71.8227 92.0683C72.0612 92.0683 72.2496 91.9959 72.388 91.8511C72.5285 91.7042 72.6253 91.5041 72.6786 91.2508H73.2374C73.1735 91.7042 73.0139 92.0363 72.7584 92.2471C72.5029 92.4557 72.1761 92.56 71.778 92.56C71.331 92.56 70.9744 92.3972 70.7083 92.0714C70.4422 91.7436 70.3091 91.3348 70.3091 90.8452C70.3091 90.2449 70.4549 89.7776 70.7466 89.4433C71.0382 89.1091 71.4097 88.942 71.8611 88.942ZM75.5526 90.842V88.7695L74.0868 90.842H75.5526ZM75.5622 92.461V91.3434H73.5567V90.7813L75.6516 87.8754H76.137V90.842H76.8108V91.3434H76.137V92.461H75.5622ZM77.7943 91.3881C77.8113 91.5797 77.8592 91.7266 77.938 91.8288C78.0828 92.014 78.334 92.1066 78.6916 92.1066C78.9045 92.1066 79.0919 92.0608 79.2537 91.9693C79.4155 91.8756 79.4964 91.7319 79.4964 91.5382C79.4964 91.3913 79.4314 91.2795 79.3016 91.2029C79.2185 91.156 79.0546 91.1017 78.8098 91.04L78.3531 90.925C78.0615 90.8527 77.8465 90.7718 77.7081 90.6823C77.4611 90.5269 77.3377 90.3119 77.3377 90.0373C77.3377 89.7137 77.4537 89.4518 77.6857 89.2517C77.9199 89.0516 78.2339 88.9515 78.6278 88.9515C79.143 88.9515 79.5145 89.1027 79.7423 89.405C79.8849 89.5966 79.9541 89.8031 79.9498 90.0245H79.407C79.3963 89.8946 79.3505 89.7765 79.2696 89.67C79.1376 89.5189 78.9088 89.4433 78.5831 89.4433C78.3659 89.4433 78.2009 89.4848 78.0881 89.5679C77.9774 89.6509 77.922 89.7605 77.922 89.8968C77.922 90.0458 77.9955 90.165 78.1424 90.2544C78.2275 90.3077 78.3531 90.3545 78.5192 90.3949L78.8992 90.4875C79.3122 90.5876 79.589 90.6845 79.7295 90.7781C79.953 90.925 80.0648 91.156 80.0648 91.4711C80.0648 91.7755 79.9488 92.0385 79.7167 92.2599C79.4868 92.4813 79.1355 92.592 78.6629 92.592C78.1541 92.592 77.7932 92.477 77.5804 92.2471C77.3696 92.015 77.2568 91.7287 77.2419 91.3881H77.7943ZM82.0798 92.0906C82.4609 92.0906 82.7216 91.9469 82.8622 91.6595C83.0048 91.37 83.0761 91.0485 83.0761 90.6951C83.0761 90.3758 83.025 90.1161 82.9228 89.9159C82.761 89.6009 82.4821 89.4433 82.0862 89.4433C81.7349 89.4433 81.4794 89.5774 81.3198 89.8457C81.1601 90.1139 81.0803 90.4375 81.0803 90.8165C81.0803 91.1805 81.1601 91.4839 81.3198 91.7266C81.4794 91.9693 81.7328 92.0906 82.0798 92.0906ZM82.1021 88.942C82.5428 88.942 82.9154 89.0889 83.2198 89.3826C83.5242 89.6764 83.6765 90.1086 83.6765 90.6791C83.6765 91.2305 83.5423 91.6861 83.2741 92.0459C83.0059 92.4057 82.5897 92.5856 82.0255 92.5856C81.555 92.5856 81.1814 92.427 80.9046 92.1098C80.6279 91.7904 80.4895 91.3625 80.4895 90.826C80.4895 90.2512 80.6353 89.7935 80.927 89.4529C81.2186 89.1123 81.6104 88.942 82.1021 88.942Z" fill="white"/>
<path d="M22.8389 58.863H94.6177" stroke="white" stroke-width="0.817498"/>
<defs>
<linearGradient id="paint0_linear_231_2381" x1="0" y1="59" x2="118" y2="59" gradientUnits="userSpaceOnUse">
<stop stop-color="#14BCF0"/>
<stop offset="1" stop-color="#2261AE"/>
</linearGradient>
<linearGradient id="paint1_linear_231_2381" x1="12.5068" y1="58.9999" x2="105.493" y2="58.9999" gradientUnits="userSpaceOnUse">
<stop stop-color="#2261AE"/>
<stop offset="1" stop-color="#14BCF0"/>
</linearGradient>
</defs>
</svg>
