<svg xml:space="preserve" style="enable-background:new 0 0 240 72;" viewBox="0 0 240 72" y="0px" x="0px" xmlns:xlink="http://www.w3.org/1999/xlink" xmlns="http://www.w3.org/2000/svg" id="Layer_1" version="1.1">
<style type="text/css">
	.st0{fill:#1ED760;}
</style>
<path d="M36,0C16.1,0,0,16.1,0,36c0,19.9,16.1,36,36,36c19.9,0,36-16.1,36-36C72,16.1,55.9,0,36,0C36,0,36,0,36,0z
	 M52.5,51.9c-0.6,1.1-2,1.4-3.1,0.7c-8.5-5.2-19.1-6.3-31.6-3.5c-1.2,0.3-2.4-0.5-2.7-1.7c-0.3-1.2,0.5-2.4,1.7-2.7
	c13.7-3.1,25.5-1.8,35,4C52.8,49.5,53.1,50.9,52.5,51.9z M56.9,42.1c-0.8,1.3-2.5,1.7-3.9,0.9c-9.7-5.9-24.4-7.7-35.9-4.2
	c-1.5,0.4-3.1-0.4-3.5-1.9c-0.4-1.5,0.4-3,1.9-3.5c13.1-4,29.3-2,40.4,4.8C57.3,39.1,57.7,40.8,56.9,42.1L56.9,42.1z M57.3,31.9
	c-11.6-6.9-30.7-7.5-41.8-4.2c-1.8,0.5-3.7-0.5-4.2-2.2c-0.5-1.8,0.5-3.7,2.2-4.2c12.7-3.9,33.8-3.1,47.2,4.8c1.6,0.9,2.1,3,1.2,4.6
	C60.9,32.3,58.9,32.9,57.3,31.9L57.3,31.9z M97.9,33.2c-6.2-1.5-7.3-2.5-7.3-4.7c0-2.1,1.9-3.5,4.8-3.5c2.8,0,5.6,1.1,8.5,3.2
	c0.1,0.1,0.2,0.1,0.3,0.1c0.1,0,0.2-0.1,0.3-0.2l3-4.3c0.1-0.2,0.1-0.4-0.1-0.6c-3.5-2.8-7.4-4.1-11.9-4.1c-6.7,0-11.4,4-11.4,9.8
	c0,6.2,4,8.4,11,10.1c5.9,1.4,6.9,2.5,6.9,4.6c0,2.3-2,3.7-5.3,3.7c-3.6,0-6.6-1.2-9.9-4.1c-0.1-0.1-0.2-0.1-0.3-0.1
	c-0.1,0-0.2,0.1-0.3,0.1l-3.4,4c-0.1,0.2-0.1,0.4,0,0.6c3.9,3.4,8.6,5.3,13.7,5.3c7.2,0,11.9-3.9,11.9-10.1
	C108.6,37.9,105.5,35.1,97.9,33.2C97.9,33.2,97.9,33.2,97.9,33.2z M124.9,27.1c-3.1,0-5.7,1.2-7.8,3.8V28c0-0.2-0.2-0.4-0.4-0.4
	h-5.6c-0.2,0-0.4,0.2-0.4,0.4v31.6c0,0.2,0.2,0.4,0.4,0.4h5.6c0.2,0,0.4-0.2,0.4-0.4v-10c2.1,2.4,4.7,3.5,7.8,3.5
	c5.8,0,11.7-4.5,11.7-13.1C136.7,31.6,130.8,27.1,124.9,27.1L124.9,27.1L124.9,27.1z M130.2,40.2c0,4.4-2.7,7.4-6.5,7.4
	c-3.8,0-6.7-3.2-6.7-7.4c0-4.2,2.9-7.4,6.7-7.4C127.4,32.8,130.2,35.9,130.2,40.2L130.2,40.2z M151.8,27.1
	c-7.5,0-13.4,5.8-13.4,13.1c0,7.3,5.8,13,13.3,13c7.5,0,13.4-5.8,13.4-13.1C165.1,32.8,159.2,27.1,151.8,27.1L151.8,27.1z
	 M151.8,47.6c-4,0-7-3.2-7-7.5c0-4.3,2.9-7.4,6.9-7.4c4,0,7,3.2,7,7.5C158.7,44.5,155.8,47.6,151.8,47.6z M181.1,27.6H175v-6.3
	c0-0.2-0.2-0.4-0.4-0.4H169c-0.2,0-0.4,0.2-0.4,0.4v6.3h-2.7c-0.2,0-0.4,0.2-0.4,0.4v4.8c0,0.2,0.2,0.4,0.4,0.4h2.7v12.4
	c0,5,2.5,7.5,7.4,7.5c2,0,3.6-0.4,5.2-1.3c0.1-0.1,0.2-0.2,0.2-0.4v-4.6c0-0.1-0.1-0.3-0.2-0.3c-0.1-0.1-0.3-0.1-0.4,0
	c-1.1,0.5-2.1,0.8-3.3,0.8c-1.8,0-2.6-0.8-2.6-2.6V33.2h6.1c0.2,0,0.4-0.2,0.4-0.4V28C181.5,27.8,181.3,27.6,181.1,27.6L181.1,27.6
	L181.1,27.6z M202.4,27.6v-0.8c0-2.3,0.9-3.3,2.8-3.3c1.2,0,2.1,0.2,3.1,0.6c0.1,0,0.3,0,0.4-0.1c0.1-0.1,0.2-0.2,0.2-0.3v-4.7
	c0-0.2-0.1-0.3-0.3-0.4c-1.1-0.3-2.5-0.7-4.6-0.7c-5.1,0-7.9,2.9-7.9,8.4v1.2h-2.7c-0.2,0-0.4,0.2-0.4,0.4v4.8
	c0,0.2,0.2,0.4,0.4,0.4h2.7v19.1c0,0.2,0.2,0.4,0.4,0.4h5.6c0.2,0,0.4-0.2,0.4-0.4V33.2h5.2l8,19.1c-0.9,2-1.8,2.4-3,2.4
	c-1,0-2-0.3-3.1-0.9c-0.1-0.1-0.2-0.1-0.3,0c-0.1,0-0.2,0.1-0.2,0.2l-1.9,4.1c-0.1,0.2,0,0.4,0.2,0.5c2,1.1,3.7,1.5,5.9,1.5
	c4.1,0,6.4-1.9,8.4-7.1l9.7-24.9c0.1-0.1,0-0.3,0-0.4c-0.1-0.1-0.2-0.2-0.3-0.2h-5.8c-0.2,0-0.3,0.1-0.4,0.3l-5.9,16.9l-6.5-17
	c-0.1-0.2-0.2-0.3-0.4-0.3L202.4,27.6L202.4,27.6L202.4,27.6z M190.1,27.6h-5.6c-0.2,0-0.4,0.2-0.4,0.4v24.3c0,0.2,0.2,0.4,0.4,0.4
	h5.6c0.2,0,0.4-0.2,0.4-0.4V28C190.5,27.8,190.3,27.6,190.1,27.6C190.1,27.6,190.1,27.6,190.1,27.6z M187.3,16.6c-2.2,0-4,1.8-4,4
	c0,2.2,1.8,4,4,4c2.2,0,4-1.8,4-4C191.3,18.3,189.5,16.6,187.3,16.6z M236.1,35.4c-2.2,0-3.9-1.8-3.9-3.9s1.7-3.9,3.9-3.9
	c2.2,0,3.9,1.8,3.9,3.9C240,33.6,238.3,35.4,236.1,35.4z M236.1,28c-2,0-3.5,1.6-3.5,3.5c0,2,1.5,3.5,3.5,3.5c2,0,3.5-1.6,3.5-3.5
	C239.6,29.5,238.1,28,236.1,28z M237,31.9l1.1,1.6h-0.9l-1-1.4h-0.9v1.4h-0.8v-4.1h1.8c1,0,1.6,0.5,1.6,1.3
	C237.9,31.3,237.5,31.7,237,31.9L237,31.9z M236.3,30h-1v1.3h1c0.5,0,0.8-0.2,0.8-0.7C237.1,30.3,236.8,30,236.3,30z" class="st0"></path>
</svg>
